<?xml version="1.0" encoding="utf-8"?>
<!-- Generated by IcoMoon.io -->
<!DOCTYPE svg PUBLIC "-//W3C//DTD SVG 1.1//EN" "http://www.w3.org/Graphics/SVG/1.1/DTD/svg11.dtd">
<svg version="1.1" xmlns="http://www.w3.org/2000/svg" xmlns:xlink="http://www.w3.org/1999/xlink" width="32" height="32" viewBox="0 0 32 32">
<g>
</g>
	<path d="M13.070 5.202l-5.796-1.553c-0.533-0.143-1.081 0.174-1.224 0.707l-5.953 22.216c-0.143 0.534 0.174 1.082 0.708 1.226l5.795 1.553c0.533 0.143 1.082-0.174 1.225-0.707l5.953-22.217c0.142-0.533-0.174-1.082-0.708-1.225zM7.78 24.943c-0.429 1.601-2.073 2.55-3.674 2.121s-2.55-2.073-2.121-3.674 2.073-2.551 3.674-2.121c1.601 0.429 2.55 2.074 2.121 3.674zM8.929 20.657l-5.795-1.553 3.105-11.591 5.796 1.554-3.106 11.59zM18.938 23c-0.829 0-1.5 0.672-1.5 1.5s0.671 1.5 1.5 1.5c0.828 0 1.5-0.672 1.5-1.5s-0.672-1.5-1.5-1.5zM10.811 9.773l-3.865-1.035-0.258 0.966 3.864 1.035 0.259-0.966zM10.033 12.671l0.26-0.966-3.864-1.035-0.259 0.966 3.863 1.035zM5.255 22.778c-0.8-0.215-1.623 0.261-1.837 1.061-0.215 0.801 0.26 1.623 1.061 1.837 0.8 0.215 1.623-0.26 1.837-1.061 0.214-0.8-0.261-1.622-1.061-1.837zM29.938 9h-4v1h4v-1zM29.938 13h-4v1h4v-1zM29.938 11h-4v1h4v-1zM27.938 23c-0.829 0-1.5 0.672-1.5 1.5s0.671 1.5 1.5 1.5c0.828 0 1.5-0.672 1.5-1.5s-0.672-1.5-1.5-1.5zM30.938 4h-6c-0.553 0-1 0.447-1 1v23c0 0.552 0.447 1 1 1h6c0.552 0 1-0.448 1-1v-23c0-0.553-0.449-1-1-1zM27.938 27.5c-1.657 0-3-1.344-3-3 0-1.657 1.343-3 3-3 1.656 0 3 1.343 3 3 0 1.656-1.344 3-3 3zM30.938 20h-6v-12h6v12zM20.938 9h-4v1h4v-1zM20.938 13h-4v1h4v-1zM21.938 4h-6c-0.553 0-1 0.447-1 1v23c0 0.552 0.447 1 1 1h6c0.552 0 1-0.448 1-1v-23c0-0.553-0.449-1-1-1zM18.938 27.438c-1.657 0-3-1.344-3-3 0-1.657 1.343-3 3-3 1.656 0 3 1.343 3 3 0 1.656-1.344 3-3 3zM21.938 20h-6v-12h6v12zM20.938 11h-4v1h4v-1zM5.652 13.567l3.863 1.035 0.26-0.966-3.864-1.035-0.259 0.966z" fill="#000000" />
</svg>
