<?xml version="1.0" encoding="UTF-8" standalone="no"?>
<svg
   xmlns:dc="http://purl.org/dc/elements/1.1/"
   xmlns:cc="http://creativecommons.org/ns#"
   xmlns:rdf="http://www.w3.org/1999/02/22-rdf-syntax-ns#"
   xmlns:svg="http://www.w3.org/2000/svg"
   xmlns="http://www.w3.org/2000/svg"
   xmlns:sodipodi="http://sodipodi.sourceforge.net/DTD/sodipodi-0.dtd"
   xmlns:inkscape="http://www.inkscape.org/namespaces/inkscape"
   version="1.1"
   id="Layer_1"
   x="0px"
   y="0px"
   width="95.643959"
   height="16"
   viewBox="0 0 95.643956 16"
   enable-background="new 0 0 101.33 16"
   xml:space="preserve"
   inkscape:version="0.48.4 r9939"
   sodipodi:docname="cowbell-labs.svg"><metadata
     id="metadata3103"><rdf:RDF><cc:Work
         rdf:about=""><dc:format>image/svg+xml</dc:format><dc:type
           rdf:resource="http://purl.org/dc/dcmitype/StillImage" /></cc:Work></rdf:RDF></metadata><defs
     id="defs3101" /><sodipodi:namedview
     pagecolor="#ffffff"
     bordercolor="#666666"
     borderopacity="1"
     objecttolerance="10"
     gridtolerance="10"
     guidetolerance="10"
     inkscape:pageopacity="0"
     inkscape:pageshadow="2"
     inkscape:window-width="1916"
     inkscape:window-height="1037"
     id="namedview3099"
     showgrid="false"
     fit-margin-top="0"
     fit-margin-left="0"
     fit-margin-right="0"
     fit-margin-bottom="0"
     inkscape:zoom="4.2484949"
     inkscape:cx="83.627669"
     inkscape:cy="30.169237"
     inkscape:window-x="0"
     inkscape:window-y="20"
     inkscape:window-maximized="0"
     inkscape:current-layer="Layer_1" /><g
     id="g3067"
     transform="translate(-3.6582031e-6,0)"><g
       id="rect2985" /><g
       id="path2987" /></g><g
     style="font-size:40px;font-style:normal;font-variant:normal;font-weight:normal;font-stretch:normal;line-height:125%;letter-spacing:0px;word-spacing:0px;fill:#000000;fill-opacity:1;stroke:none;font-family:Lato;-inkscape-font-specification:Lato"
     id="text3122"
     transform="translate(1.4122634,0)"><path
       id="path3147"
       style="font-size:13px;font-weight:bold;-inkscape-font-specification:Lato Bold"
       d="m 93.796198,7.4085002 c -0.04334,0.069339 -0.08884,0.1191719 -0.1365,0.1495 -0.04767,0.026005 -0.108338,0.039005 -0.182,0.039 -0.078,5.1e-6 -0.162504,-0.021662 -0.2535,-0.065 -0.08667,-0.043328 -0.188504,-0.090995 -0.3055,-0.143 -0.117004,-0.056328 -0.251337,-0.1061612 -0.403,-0.1495 -0.147337,-0.043328 -0.322836,-0.064994 -0.5265,-0.065 -0.316336,5.6e-6 -0.565502,0.067172 -0.7475,0.2015 -0.182002,0.1343386 -0.273002,0.3098384 -0.273,0.5265 -2e-6,0.1430047 0.0455,0.2643379 0.1365,0.364 0.09533,0.095338 0.218831,0.1798376 0.3705,0.2535 0.155998,0.073671 0.331497,0.1408374 0.5265,0.2015 0.194997,0.056337 0.39433,0.1191706 0.598,0.1885 0.203663,0.069337 0.402996,0.1495037 0.598,0.2405 0.194996,0.08667 0.368329,0.1993367 0.52,0.338 0.155995,0.1343364 0.279495,0.2968363 0.3705,0.4875 0.09533,0.1906688 0.142995,0.4203358 0.143,0.6889998 -5e-6,0.320669 -0.0585,0.617502 -0.1755,0.8905 -0.117005,0.268668 -0.288171,0.502668 -0.5135,0.702 -0.225337,0.195 -0.504837,0.348834 -0.8385,0.4615 -0.329337,0.108333 -0.708503,0.1625 -1.1375,0.1625 -0.229669,0 -0.455002,-0.02167 -0.676,-0.065 -0.216668,-0.039 -0.426835,-0.09533 -0.6305,-0.169 -0.199334,-0.07367 -0.385667,-0.160333 -0.559,-0.26 -0.169,-0.09967 -0.3185,-0.207999 -0.4485,-0.325 l 0.3705,-0.611 c 0.04767,-0.07367 0.103999,-0.129998 0.169,-0.169 0.065,-0.039 0.147333,-0.0585 0.247,-0.0585 0.09967,2e-6 0.192832,0.02817 0.2795,0.0845 0.091,0.05633 0.194999,0.117002 0.312,0.182 0.116998,0.065 0.253498,0.125668 0.4095,0.182 0.160331,0.05634 0.361831,0.0845 0.6045,0.0845 0.190664,1e-6 0.353164,-0.02167 0.4875,-0.065 0.138664,-0.04767 0.25133,-0.108332 0.338,-0.182 0.091,-0.07367 0.155997,-0.158165 0.195,-0.2535 0.04333,-0.09967 0.065,-0.201498 0.065,-0.3055 -4e-6,-0.155998 -0.04767,-0.283831 -0.143,-0.3835 -0.091,-0.09966 -0.214503,-0.186331 -0.3705,-0.26 -0.15167,-0.07366 -0.327169,-0.138664 -0.5265,-0.195 -0.195002,-0.06066 -0.396502,-0.1256637 -0.6045,-0.1949998 -0.203668,-0.06933 -0.405168,-0.149497 -0.6045,-0.2405 -0.195001,-0.09533 -0.370501,-0.2144967 -0.5265,-0.3575 -0.151667,-0.1429964 -0.275167,-0.3184963 -0.3705,-0.5265 -0.091,-0.2079959 -0.1365,-0.4593289 -0.1365,-0.754 0,-0.272995 0.05417,-0.5329948 0.1625,-0.78 0.108333,-0.2469943 0.266499,-0.4614941 0.4745,-0.6435 0.212332,-0.186327 0.474499,-0.3336602 0.7865,-0.442 0.316331,-0.11266 0.680331,-0.1689933 1.092,-0.169 0.45933,6.7e-6 0.877496,0.07584 1.2545,0.2275 0.376996,0.151673 0.691162,0.3510061 0.9425,0.598 l -0.364,0.5785 M 82.443136,12.7775 l 0,-9.6589998 1.6055,0 0,3.809 c 0.26433,-0.2816606 0.56333,-0.504827 0.897,-0.6695 0.333663,-0.1689934 0.723662,-0.2534933 1.17,-0.2535 0.363995,6.7e-6 0.695494,0.07584 0.9945,0.2275 0.303327,0.1473397 0.563327,0.3640061 0.78,0.65 0.220993,0.2860056 0.389993,0.6391719 0.507,1.0595 0.121326,0.4203377 0.181993,0.9035039 0.182,1.4495 -7e-6,0.4983362 -0.06717,0.9598358 -0.2015,1.3844998 -0.13434,0.424668 -0.327173,0.793001 -0.5785,1.105 -0.247006,0.312001 -0.548173,0.556834 -0.9035,0.7345 -0.351005,0.173333 -0.745338,0.26 -1.183,0.26 -0.203671,0 -0.390004,-0.02167 -0.559,-0.065 -0.169004,-0.039 -0.322837,-0.09533 -0.4615,-0.169 -0.13867,-0.07367 -0.26867,-0.1625 -0.39,-0.2665 -0.117003,-0.108333 -0.229669,-0.227499 -0.338,-0.3575 l -0.0715,0.4485 c -0.026,0.112667 -0.0715,0.192834 -0.1365,0.2405 -0.06067,0.04767 -0.145169,0.0715 -0.2535,0.0715 l -1.0595,0 m 3.12,-5.5249998 c -0.333671,5.5e-6 -0.61967,0.071505 -0.858,0.2145 -0.234003,0.1386718 -0.452836,0.3358383 -0.6565,0.5915 l 0,2.9899998 c 0.181997,0.225335 0.379163,0.383501 0.5915,0.4745 0.216663,0.08667 0.450663,0.130001 0.702,0.13 0.242662,10e-7 0.461495,-0.0455 0.6565,-0.1365 0.194995,-0.091 0.359662,-0.229665 0.494,-0.416 0.138661,-0.186331 0.244828,-0.420331 0.3185,-0.702 0.07366,-0.285997 0.110494,-0.6218302 0.1105,-1.0074998 -6e-6,-0.3899963 -0.03251,-0.7193293 -0.0975,-0.988 -0.06067,-0.2729954 -0.149505,-0.4939952 -0.2665,-0.663 -0.117005,-0.1689948 -0.260005,-0.2924947 -0.429,-0.3705 -0.164671,-0.077995 -0.353171,-0.1169945 -0.5655,-0.117 m -4.718188,5.5249998 -0.7215,0 c -0.151672,0 -0.270838,-0.02167 -0.3575,-0.065 -0.08667,-0.04767 -0.151671,-0.140833 -0.195,-0.2795 l -0.143,-0.4745 c -0.169004,0.151667 -0.335837,0.286001 -0.5005,0.403 -0.160337,0.112667 -0.32717,0.208 -0.5005,0.286 -0.173337,0.078 -0.357503,0.1365 -0.5525,0.1755 -0.195003,0.039 -0.411669,0.0585 -0.65,0.0585 -0.281669,0 -0.541668,-0.03683 -0.78,-0.1105 -0.238335,-0.078 -0.444168,-0.192833 -0.6175,-0.3445 -0.169001,-0.151666 -0.301167,-0.340166 -0.3965,-0.5655 -0.09533,-0.225332 -0.143,-0.487498 -0.143,-0.7865 0,-0.251331 0.065,-0.498331 0.195,-0.741 0.134333,-0.246997 0.355332,-0.4679969 0.663,-0.6629998 0.307665,-0.1993301 0.717165,-0.3639966 1.2285,-0.494 0.51133,-0.1299963 1.146163,-0.2036629 1.9045,-0.221 l 0,-0.39 c -4e-6,-0.4463287 -0.09534,-0.7756617 -0.286,-0.988 -0.186337,-0.2166613 -0.459337,-0.3249945 -0.819,-0.325 -0.260003,5.5e-6 -0.476669,0.030339 -0.65,0.091 -0.173336,0.060672 -0.325002,0.1300053 -0.455,0.208 -0.125669,0.073672 -0.242669,0.1408384 -0.351,0.2015 -0.108335,0.060672 -0.227502,0.091005 -0.3575,0.091 -0.108335,4.9e-6 -0.201501,-0.028162 -0.2795,-0.0845 -0.078,-0.056328 -0.140834,-0.1256616 -0.1885,-0.208 l -0.2925,-0.5135 c 0.766999,-0.7019936 1.692164,-1.0529933 2.7755,-1.053 0.389996,6.7e-6 0.736662,0.065007 1.04,0.195 0.307662,0.1256731 0.567662,0.3033396 0.78,0.533 0.212328,0.2253391 0.372661,0.4961722 0.481,0.8125 0.112661,0.3163382 0.168994,0.6630045 0.169,1.04 l 0,4.2119998 m -3.12,-1.001 c 0.164664,10e-7 0.31633,-0.01516 0.455,-0.0455 0.138663,-0.03033 0.268663,-0.07583 0.39,-0.1365 0.125663,-0.06067 0.244829,-0.134332 0.3575,-0.221 0.116996,-0.091 0.233996,-0.197165 0.351,-0.3185 l 0,-1.1244998 c -0.468004,0.021669 -0.86017,0.062836 -1.1765,0.1234998 -0.312003,0.05634 -0.563336,0.130003 -0.754,0.221 -0.190669,0.091 -0.327169,0.197169 -0.4095,0.3185 -0.078,0.121336 -0.117002,0.253502 -0.117,0.3965 -2e-6,0.281668 0.08233,0.483168 0.247,0.6045 0.168998,0.121335 0.387831,0.182001 0.6565,0.182 m -6.995015,-0.442 3.7635,0 0,1.443 -5.512,0 0,-9.3989998 1.7485,0 0,7.9559998 m -6.172969,-8.2159998 0,9.6589998 -1.6055,0 0,-9.6589998 1.6055,0 m -3.529297,0 0,9.6589998 -1.6055,0 0,-9.6589998 1.6055,0 m -5.910531,2.886 c 0.420329,6.7e-6 0.805995,0.067173 1.157,0.2015 0.355328,0.1343397 0.660828,0.3315062 0.9165,0.5915 0.25566,0.2556723 0.454994,0.5720054 0.598,0.949 0.142993,0.3726713 0.214493,0.7995042 0.2145,1.2805 -7e-6,0.1213369 -0.0065,0.2231701 -0.0195,0.3055 -0.0087,0.078003 -0.02817,0.1408366 -0.0585,0.1885 -0.02601,0.043337 -0.06284,0.075837 -0.1105,0.0975 -0.04767,0.017336 -0.10834,0.026003 -0.182,0.026 l -4.121,0 c 0.04766,0.6846688 0.231831,1.1873348 0.5525,1.5079998 0.320663,0.320668 0.74533,0.481001 1.274,0.481 0.259996,1e-6 0.483162,-0.03033 0.6695,-0.091 0.190662,-0.06067 0.355328,-0.127832 0.494,-0.2015 0.142995,-0.07367 0.266494,-0.140832 0.3705,-0.2015 0.108328,-0.06067 0.212327,-0.091 0.312,-0.091 0.06499,2e-6 0.121327,0.013 0.169,0.039 0.04766,0.026 0.08883,0.06283 0.1235,0.1105 l 0.468,0.585 c -0.177673,0.208001 -0.377006,0.383501 -0.598,0.5265 -0.221006,0.138667 -0.452839,0.251334 -0.6955,0.338 -0.238339,0.08233 -0.483172,0.140833 -0.7345,0.1755 -0.247004,0.03467 -0.487504,0.052 -0.7215,0.052 -0.46367,0 -0.894836,-0.07583 -1.2935,-0.2275 -0.398669,-0.156 -0.745335,-0.383499 -1.04,-0.6825 -0.294668,-0.303332 -0.526501,-0.675998 -0.6955,-1.118 -0.169001,-0.446331 -0.253501,-0.961997 -0.2535,-1.5469998 -10e-7,-0.4549961 0.07367,-0.881829 0.221,-1.2805 0.147332,-0.4029949 0.357499,-0.7518279 0.6305,-1.0465 0.277331,-0.2989939 0.613164,-0.5351604 1.0075,-0.7085 0.398664,-0.1733267 0.847163,-0.2599933 1.3455,-0.26 m 0.0325,1.1505 c -0.468003,5.6e-6 -0.83417,0.1321721 -1.0985,0.3965 -0.264336,0.2643382 -0.433336,0.6391712 -0.507,1.1245 l 3.016,0 c -5e-6,-0.2079957 -0.02817,-0.4029955 -0.0845,-0.585 -0.05634,-0.1863285 -0.143005,-0.3488283 -0.26,-0.4875 -0.117005,-0.1386614 -0.264338,-0.2469946 -0.442,-0.325 -0.177671,-0.082328 -0.385671,-0.1234944 -0.624,-0.1235 M 44.966573,12.7775 l 0,-9.6589998 1.6055,0 0,3.809 c 0.264331,-0.2816606 0.56333,-0.504827 0.897,-0.6695 0.333663,-0.1689934 0.723663,-0.2534933 1.17,-0.2535 0.363995,6.7e-6 0.695495,0.07584 0.9945,0.2275 0.303328,0.1473397 0.563327,0.3640061 0.78,0.65 0.220994,0.2860056 0.389993,0.6391719 0.507,1.0595 0.121327,0.4203377 0.181993,0.9035039 0.182,1.4495 -7e-6,0.4983362 -0.06717,0.9598358 -0.2015,1.3844998 -0.13434,0.424668 -0.327173,0.793001 -0.5785,1.105 -0.247006,0.312001 -0.548172,0.556834 -0.9035,0.7345 -0.351005,0.173333 -0.745338,0.26 -1.183,0.26 -0.20367,0 -0.390004,-0.02167 -0.559,-0.065 -0.169003,-0.039 -0.322836,-0.09533 -0.4615,-0.169 -0.138669,-0.07367 -0.268669,-0.1625 -0.39,-0.2665 -0.117002,-0.108333 -0.229669,-0.227499 -0.338,-0.3575 l -0.0715,0.4485 c -0.026,0.112667 -0.0715,0.192834 -0.1365,0.2405 -0.06067,0.04767 -0.145169,0.0715 -0.2535,0.0715 l -1.0595,0 m 3.12,-5.5249998 c -0.33367,5.5e-6 -0.61967,0.071505 -0.858,0.2145 -0.234003,0.1386718 -0.452836,0.3358383 -0.6565,0.5915 l 0,2.9899998 c 0.181998,0.225335 0.379164,0.383501 0.5915,0.4745 0.216664,0.08667 0.450663,0.130001 0.702,0.13 0.242663,10e-7 0.461496,-0.0455 0.6565,-0.1365 0.194996,-0.091 0.359662,-0.229665 0.494,-0.416 0.138662,-0.186331 0.244828,-0.420331 0.3185,-0.702 0.07366,-0.285997 0.110495,-0.6218302 0.1105,-1.0074998 -5e-6,-0.3899963 -0.03251,-0.7193293 -0.0975,-0.988 -0.06067,-0.2729954 -0.149505,-0.4939952 -0.2665,-0.663 -0.117005,-0.1689948 -0.260005,-0.2924947 -0.429,-0.3705 -0.164671,-0.077995 -0.353171,-0.1169945 -0.5655,-0.117 m -14.235203,-1.144 1.274,0 c 0.121332,6.6e-6 0.223165,0.028173 0.3055,0.0845 0.08233,0.05634 0.134332,0.1278397 0.156,0.2145 l 0.9555,3.562 c 0.052,0.1950028 0.09316,0.3856688 0.1235,0.5719998 0.03466,0.186336 0.06716,0.372669 0.0975,0.559 0.04766,-0.186331 0.0975,-0.372664 0.1495,-0.559 0.05633,-0.186331 0.11483,-0.376997 0.1755,-0.5719998 l 1.105,-3.575 c 0.026,-0.08666 0.078,-0.1581602 0.156,-0.2145 0.078,-0.056327 0.168995,-0.084493 0.273,-0.0845 l 0.7085,0 c 0.116994,6.6e-6 0.214494,0.028173 0.2925,0.0845 0.07799,0.05634 0.129994,0.1278398 0.156,0.2145 l 1.092,3.6399998 c 0.05633,0.186336 0.10616,0.368336 0.1495,0.546 0.04766,0.173336 0.09316,0.348835 0.1365,0.5265 0.03033,-0.186331 0.06283,-0.372664 0.0975,-0.559 0.03899,-0.186331 0.08666,-0.379164 0.143,-0.5784998 l 0.988,-3.562 c 0.02166,-0.08666 0.07366,-0.1581602 0.156,-0.2145 0.08232,-0.056327 0.177658,-0.084493 0.286,-0.0845 l 1.2155,0 -2.1125,6.6689998 -1.2935,0 c -0.138673,0 -0.23834,-0.09533 -0.299,-0.286 l -1.2025,-3.8544998 c -0.039,-0.1256624 -0.07584,-0.251329 -0.1105,-0.377 -0.03034,-0.1299954 -0.05634,-0.2578286 -0.078,-0.3835 -0.026,0.1300047 -0.05417,0.2600046 -0.0845,0.39 -0.03034,0.125671 -0.065,0.2535042 -0.104,0.3835 L 37.54337,12.4915 c -0.06067,0.190667 -0.17767,0.286 -0.351,0.286 l -1.2285,0 -2.1125,-6.6689998 m -3.729172,-0.104 c 0.498329,6.7e-6 0.948996,0.080173 1.352,0.2405 0.407328,0.1603397 0.753994,0.3878394 1.04,0.6825 0.285994,0.2946722 0.506994,0.6543385 0.663,1.079 0.155993,0.424671 0.233993,0.8991705 0.234,1.4235 -7e-6,0.5286694 -0.07801,1.0053358 -0.234,1.4299998 -0.156006,0.424668 -0.377006,0.786501 -0.663,1.0855 -0.286006,0.299001 -0.632672,0.528667 -1.04,0.689 -0.403004,0.160333 -0.853671,0.2405 -1.352,0.2405 -0.498336,0 -0.951169,-0.08017 -1.3585,-0.2405 -0.407335,-0.160333 -0.756168,-0.389999 -1.0465,-0.689 -0.286001,-0.298999 -0.509167,-0.660832 -0.6695,-1.0855 -0.156,-0.424664 -0.234,-0.9013304 -0.234,-1.4299998 0,-0.5243295 0.078,-0.998829 0.234,-1.4235 0.160333,-0.4246615 0.383499,-0.7843278 0.6695,-1.079 0.290332,-0.2946606 0.639165,-0.5221603 1.0465,-0.6825 0.407331,-0.1603267 0.860164,-0.2404933 1.3585,-0.2405 m 0,5.6354998 c 0.554663,10e-7 0.964162,-0.186332 1.2285,-0.559 0.268662,-0.372664 0.402995,-0.918664 0.403,-1.6379998 -5e-6,-0.7193293 -0.134338,-1.2674954 -0.403,-1.6445 -0.264338,-0.3769947 -0.673837,-0.5654945 -1.2285,-0.5655 -0.563336,5.5e-6 -0.979336,0.190672 -1.248,0.572 -0.268669,0.3770045 -0.403002,0.923004 -0.403,1.638 -2e-6,0.7150028 0.134331,1.2610018 0.403,1.6379998 0.268664,0.372668 0.684664,0.559001 1.248,0.559 m -5.003984,-1.079 c 0.09533,2e-6 0.177659,0.03684 0.247,0.1105 l 0.689,0.7475 c -0.381341,0.472334 -0.851508,0.834167 -1.4105,1.0855 -0.554673,0.251334 -1.222006,0.377 -2.002,0.377 -0.697671,0 -1.326004,-0.119166 -1.885,-0.3575 -0.554669,-0.238333 -1.029169,-0.569832 -1.4235,-0.9945 -0.394335,-0.424665 -0.697668,-0.931664 -0.91,-1.521 -0.208001,-0.5893298 -0.312001,-1.2328292 -0.312,-1.9304998 -1e-6,-0.706328 0.116999,-1.351994 0.351,-1.937 0.233999,-0.5893262 0.563332,-1.0963256 0.988,-1.521 0.424664,-0.4246581 0.931664,-0.7539911 1.521,-0.988 0.593663,-0.238324 1.247995,-0.3574905 1.963,-0.3575 0.697661,9.5e-6 1.306493,0.112676 1.8265,0.338 0.524326,0.2210089 0.972825,0.5156753 1.3455,0.884 l -0.585,0.8125 c -0.03468,0.052007 -0.08018,0.097507 -0.1365,0.1365 -0.05201,0.039007 -0.125674,0.058507 -0.221,0.0585 -0.09967,7.2e-6 -0.201507,-0.038993 -0.3055,-0.117 -0.104007,-0.077993 -0.236174,-0.1624925 -0.3965,-0.2535 -0.16034,-0.090992 -0.364007,-0.1754922 -0.611,-0.2535 -0.242673,-0.077992 -0.552506,-0.116992 -0.9295,-0.117 -0.442005,8e-6 -0.849338,0.078008 -1.222,0.234 -0.368337,0.1516742 -0.686837,0.3705074 -0.9555,0.6565 -0.264336,0.2860068 -0.472336,0.6348398 -0.624,1.0465 -0.147336,0.407339 -0.221002,0.8666718 -0.221,1.378 -2e-6,0.5286708 0.07366,0.998837 0.221,1.4105 0.151664,0.4116695 0.35533,0.7583358 0.611,1.0399998 0.255663,0.281669 0.55683,0.498335 0.9035,0.65 0.346662,0.147335 0.719328,0.221002 1.118,0.221 0.238328,2e-6 0.452828,-0.013 0.6435,-0.039 0.194994,-0.026 0.37266,-0.06716 0.533,-0.1235 0.16466,-0.05633 0.318493,-0.127832 0.4615,-0.2145 0.147326,-0.091 0.292493,-0.201498 0.4355,-0.3315 0.04333,-0.039 0.08883,-0.06933 0.1365,-0.091 0.04766,-0.026 0.09966,-0.039 0.156,-0.039 M 6.5877352,16 c -4.411,0 -8,-3.59 -8,-8 0,-4.411 3.588,-8 8,-8 4.4120008,0 8.0000008,3.6 8.0000008,8 0,4.4 -3.6,8 -8.0000008,8 z m 0,-14.5 c -3.561,0 -6.5,2.9 -6.5,6.5 0,3.6 2.9,6.5 6.5,6.457 C 10.187736,14.414 13.044736,11.6 13.087736,8 c -0.043,-3.6 -2.9,-6.5 -6.5000008,-6.458 z m 1.0309977,11.261 h -2.073 v -1.048 l -2.984,0.011 0.087,-0.853 c 0.693,-6.794 1.59,-6.794 2.184,-6.794 h 0.222 V 3.238 h 3.056 v 0.839 h 0.222 c 0.608,0 1.4,0 2.2000001,6.788 l 0.095,0.858 -3.0010001,-0.011 v 1.049 z m -2.47,-7.141 c -0.284,0.66 -0.639,2.648 -0.87,4.555 l 1.798,-0.009 0.505,10e-4 0.507,-10e-4 v 0.003 l 1.8,0.006 c -0.245,-1.875 -0.601,-3.875 -0.901,-4.555 h -2.839 z" /></g></svg>