<?xml version="1.0" encoding="UTF-8" standalone="no"?>
<!-- Created with Inkscape (http://www.inkscape.org/) -->

<svg
   xmlns:dc="http://purl.org/dc/elements/1.1/"
   xmlns:cc="http://creativecommons.org/ns#"
   xmlns:rdf="http://www.w3.org/1999/02/22-rdf-syntax-ns#"
   xmlns:svg="http://www.w3.org/2000/svg"
   xmlns="http://www.w3.org/2000/svg"
   xmlns:sodipodi="http://sodipodi.sourceforge.net/DTD/sodipodi-0.dtd"
   xmlns:inkscape="http://www.inkscape.org/namespaces/inkscape"
   width="50.225651"
   height="72.247894"
   id="svg2"
   version="1.1"
   inkscape:version="0.48.4 r9939"
   sodipodi:docname="currencies.svg">
  <defs
     id="defs4" />
  <sodipodi:namedview
     id="base"
     pagecolor="#ffffff"
     bordercolor="#666666"
     borderopacity="1.0"
     inkscape:pageopacity="0.0"
     inkscape:pageshadow="2"
     inkscape:zoom="3.959798"
     inkscape:cx="43.077787"
     inkscape:cy="31.002331"
     inkscape:document-units="px"
     inkscape:current-layer="layer1"
     showgrid="false"
     fit-margin-top="0"
     fit-margin-left="0"
     fit-margin-right="0"
     fit-margin-bottom="0"
     inkscape:window-width="1276"
     inkscape:window-height="760"
     inkscape:window-x="0"
     inkscape:window-y="18"
     inkscape:window-maximized="0" />
  <metadata
     id="metadata7">
    <rdf:RDF>
      <cc:Work
         rdf:about="">
        <dc:format>image/svg+xml</dc:format>
        <dc:type
           rdf:resource="http://purl.org/dc/dcmitype/StillImage" />
        <dc:title />
      </cc:Work>
    </rdf:RDF>
  </metadata>
  <g
     inkscape:label="Layer 1"
     inkscape:groupmode="layer"
     id="layer1"
     transform="translate(-264.88031,-202.68746)">
    <g
       style="font-size:40px;font-style:normal;font-weight:normal;line-height:125%;letter-spacing:0px;word-spacing:0px;fill:#000000;fill-opacity:1;stroke:none;font-family:Sans"
       id="text3023">
      <path
         d="m 278.80609,248.78302 c -0.89845,3e-5 -1.73178,0.1693 -2.5,0.50781 -0.76824,0.33857 -1.45834,0.83336 -2.07031,1.48438 -0.61199,0.63804 -1.13933,1.4258 -1.58203,2.36328 -0.4297,0.9245 -0.76173,1.97918 -0.9961,3.16406 l 8.4375,0 0,2.67578 -8.73046,0 c -10e-6,0.19533 -0.007,0.38413 -0.0195,0.56641 -0.013,0.15626 -0.0195,0.31902 -0.0195,0.48828 -1e-5,0.16929 -1e-5,0.31251 0,0.42969 -1e-5,0.24741 -1e-5,0.50782 0,0.78125 -1e-5,0.26043 0.013,0.53386 0.0391,0.82031 l 7.51953,0 0,2.67578 -7.14844,0 c 0.4427,2.27865 1.26301,4.01693 2.46094,5.21485 1.21092,1.19792 2.78644,1.79687 4.72656,1.79687 0.97655,0 1.90102,-0.10416 2.77344,-0.3125 0.88539,-0.20833 1.71222,-0.48177 2.48047,-0.82031 l 0,3.16406 c -0.76825,0.36458 -1.58857,0.64453 -2.46094,0.83984 -0.85939,0.20834 -1.88153,0.3125 -3.06641,0.3125 -1.49741,0 -2.83855,-0.23437 -4.02344,-0.70312 -1.1849,-0.48177 -2.22006,-1.15885 -3.10546,-2.03125 -0.87241,-0.88541 -1.59506,-1.95312 -2.16797,-3.20313 -0.57293,-1.26301 -0.9961,-2.68228 -1.26953,-4.25781 l -3.20313,0 0,-2.67578 2.89063,0 c -0.026,-0.29947 -0.0391,-0.54686 -0.0391,-0.74219 0,-0.1953 0,-0.48175 0,-0.85937 0,-0.28645 0.007,-0.57941 0.0195,-0.87891 0.013,-0.29946 0.0195,-0.50129 0.0195,-0.60547 l -2.89063,0 0,-2.67578 3.125,0 c 0.23437,-1.62758 0.63802,-3.09894 1.21094,-4.41406 0.57291,-1.31508 1.29556,-2.44138 2.16797,-3.37891 0.8854,-0.93747 1.92707,-1.66013 3.125,-2.16797 1.1979,-0.50778 2.53905,-0.76169 4.02343,-0.76171 1.26301,2e-5 2.41535,0.14325 3.45704,0.42968 1.04164,0.27347 2.0768,0.7292 3.10546,1.36719 l -1.5625,2.85156 c -0.66408,-0.40362 -1.38673,-0.74216 -2.16796,-1.01562 -0.76825,-0.28644 -1.62111,-0.42966 -2.5586,-0.42969"
         style="font-variant:normal;font-stretch:normal;font-family:Droid Sans;-inkscape-font-specification:Droid Sans"
         id="path3081"
         inkscape:connector-curvature="0" />
    </g>
    <text
       xml:space="preserve"
       style="font-size:40px;font-style:normal;font-weight:normal;line-height:125%;letter-spacing:0px;word-spacing:0px;fill:#000000;fill-opacity:1;stroke:none;font-family:Sans"
       x="343.45187"
       y="229.08786"
       id="text3035"
       sodipodi:linespacing="125%"><tspan
         sodipodi:role="line"
         id="tspan3037"
         x="343.45187"
         y="229.08786" /></text>
    <text
       xml:space="preserve"
       style="font-size:40px;font-style:normal;font-weight:normal;line-height:125%;letter-spacing:0px;word-spacing:0px;fill:#000000;fill-opacity:1;stroke:none;font-family:Sans"
       x="322.23865"
       y="251.31122"
       id="text3039"
       sodipodi:linespacing="125%"><tspan
         sodipodi:role="line"
         id="tspan3041"
         x="322.23865"
         y="251.31122"
         style="font-style:normal;font-variant:normal;font-weight:bold;font-stretch:normal;font-family:Liberation Sans;-inkscape-font-specification:Liberation Sans Bold" /></text>
    <g
       style="font-size:40px;font-style:normal;font-variant:normal;font-weight:normal;font-stretch:normal;line-height:125%;letter-spacing:0px;word-spacing:0px;fill:#000000;fill-opacity:1;stroke:none;font-family:Droid Sans;-inkscape-font-specification:Droid Sans"
       id="text3043">
      <path
         d="m 302.91846,267.47363 -14.4336,0 0,-2.4414 10.46875,-16.32813 -9.82422,0 0,-2.67578 13.4375,0 0,2.85156 -10.23437,15.91797 10.58594,0 0,2.67578"
         id="path3084"
         inkscape:connector-curvature="0" />
      <path
         d="m 307.93799,252.66895 0,-15.58594 3.55469,0 0,13.26172 2.08984,-1.34766 1.52344,2.36328 -3.61328,2.34375 0,13.76953 -3.55469,0 0,-11.44531 -2.07031,1.36719 -1.52344,-2.36328 3.59375,-2.36328"
         id="path3086"
         inkscape:connector-curvature="0" />
    </g>
    <g
       style="font-size:40px;font-style:normal;font-weight:normal;line-height:125%;letter-spacing:0px;word-spacing:0px;fill:#000000;fill-opacity:1;stroke:none;font-family:Sans"
       id="text3047"
       transform="translate(2.2728432,-1.767767)">
      <path
         d="m 304.94189,204.45523 c 1.3802,3e-5 2.63671,0.14977 3.76954,0.44922 1.13279,0.28649 2.12888,0.65758 2.98828,1.11328 l -1.28907,2.8125 c -0.72918,-0.37758 -1.556,-0.7031 -2.48046,-0.97656 -0.91148,-0.28643 -1.85549,-0.42966 -2.83204,-0.42969 -0.62501,3e-5 -1.20443,0.0912 -1.73828,0.27344 -0.53386,0.16929 -0.9961,0.44924 -1.38672,0.83984 -0.39063,0.37763 -0.69662,0.87242 -0.91796,1.48438 -0.20835,0.612 -0.31251,1.34768 -0.3125,2.20703 l 0,5.76172 7.34375,0 0,2.67578 -7.34375,0 0,4.12109 c -1e-5,0.8073 -0.0781,1.50392 -0.23438,2.08985 -0.14324,0.57292 -0.34506,1.06771 -0.60547,1.48437 -0.2474,0.41667 -0.54037,0.76823 -0.8789,1.05469 -0.32553,0.27344 -0.66407,0.51432 -1.01563,0.72265 l 14.60938,0 0,3.24219 -19.35547,0 0,-3.00781 c 0.57291,-0.14323 1.09374,-0.34505 1.5625,-0.60547 0.48176,-0.27343 0.89192,-0.63151 1.23047,-1.07422 0.35155,-0.4427 0.62499,-0.97655 0.82031,-1.60156 0.19531,-0.63801 0.29296,-1.39322 0.29297,-2.26563 l 0,-4.16015 -3.86719,0 0,-2.67578 3.86719,0 0,-6.32813 c -10e-6,-1.13279 0.18879,-2.1419 0.5664,-3.02734 0.39062,-0.89841 0.92448,-1.65362 1.60157,-2.26563 0.69009,-0.62497 1.5104,-1.10023 2.46093,-1.42578 0.95051,-0.32549 1.99869,-0.48825 3.14453,-0.48828"
         style="font-variant:normal;font-stretch:normal;font-family:Droid Sans;-inkscape-font-specification:Droid Sans"
         id="path3078"
         inkscape:connector-curvature="0" />
    </g>
    <g
       style="font-size:40px;font-style:normal;font-weight:normal;line-height:125%;letter-spacing:0px;word-spacing:0px;fill:#000000;fill-opacity:1;stroke:none;font-family:Sans"
       id="text3051">
      <path
         d="m 279.18576,242.03783 -1.95312,0 -0.0195,-5.87891 c -1.36719,-0.026 -2.73438,-0.18229 -4.10156,-0.46875 -1.36719,-0.29948 -2.74089,-0.74219 -4.12109,-1.32812 l 0,-3.51563 c 1.32812,0.83334 2.66926,1.46485 4.02344,1.89453 1.36717,0.41667 2.77342,0.63151 4.21875,0.64453 l 0,-8.90625 c -2.87762,-0.46874 -4.97397,-1.26301 -6.28907,-2.38281 -1.30208,-1.11978 -1.95313,-2.65623 -1.95312,-4.60937 -1e-5,-2.12238 0.70963,-3.79556 2.1289,-5.01954 1.41927,-1.22393 3.45703,-1.92705 6.11329,-2.10937 l 0,-4.58984 1.95312,0 0,4.53125 c 1.21092,0.0521 2.3828,0.18231 3.51563,0.39062 1.13279,0.19534 2.23956,0.46878 3.32031,0.82031 l 0,3.41797 c -1.08075,-0.54685 -2.19403,-0.97003 -3.33985,-1.26953 -1.13282,-0.29946 -2.29819,-0.47524 -3.49609,-0.52734 l 0,8.33984 c 2.95571,0.45574 5.13019,1.26954 6.52344,2.44141 1.39321,1.17188 2.08982,2.77344 2.08984,4.80468 -2e-5,2.20053 -0.74221,3.93881 -2.22656,5.21485 -1.47137,1.26302 -3.60028,1.99219 -6.38672,2.1875 l 0,5.91797 m -1.95312,-20.91797 0,-8.00781 c -1.51043,0.16929 -2.66277,0.59898 -3.45704,1.28906 -0.79427,0.69012 -1.19141,1.60809 -1.1914,2.7539 -1e-5,1.11981 0.36457,1.99221 1.09375,2.61719 0.74218,0.62502 1.92707,1.07424 3.55469,1.34766 m 1.95312,3.75 0,8.45703 c 1.65363,-0.22135 2.89712,-0.6901 3.73047,-1.40625 0.84634,-0.71614 1.26951,-1.66015 1.26953,-2.83203 -2e-5,-1.14583 -0.40366,-2.05728 -1.21094,-2.73438 -0.79428,-0.67707 -2.0573,-1.17186 -3.78906,-1.48437"
         id="path3075"
         inkscape:connector-curvature="0" />
    </g>
  </g>
</svg>
