<?xml version="1.0" encoding="UTF-8" standalone="no"?>
<!-- Generator: Adobe Illustrator 16.0.0, SVG Export Plug-In . SVG Version: 6.00 Build 0)  -->

<svg
   xmlns:dc="http://purl.org/dc/elements/1.1/"
   xmlns:cc="http://creativecommons.org/ns#"
   xmlns:rdf="http://www.w3.org/1999/02/22-rdf-syntax-ns#"
   xmlns:svg="http://www.w3.org/2000/svg"
   xmlns="http://www.w3.org/2000/svg"
   xmlns:sodipodi="http://sodipodi.sourceforge.net/DTD/sodipodi-0.dtd"
   xmlns:inkscape="http://www.inkscape.org/namespaces/inkscape"
   version="1.1"
   id="Layer_1"
   x="0px"
   y="0px"
   width="100px"
   height="100px"
   viewBox="0 0 100 100"
   enable-background="new 0 0 100 100"
   xml:space="preserve"
   inkscape:version="0.48.4 r9939"
   sodipodi:docname="documents.svg"><metadata
     id="metadata3059"><rdf:RDF><cc:Work
         rdf:about=""><dc:format>image/svg+xml</dc:format><dc:type
           rdf:resource="http://purl.org/dc/dcmitype/StillImage" /></cc:Work></rdf:RDF></metadata><defs
     id="defs3057" /><sodipodi:namedview
     pagecolor="#ffffff"
     bordercolor="#666666"
     borderopacity="1"
     objecttolerance="10"
     gridtolerance="10"
     guidetolerance="10"
     inkscape:pageopacity="0"
     inkscape:pageshadow="2"
     inkscape:window-width="1276"
     inkscape:window-height="760"
     id="namedview3055"
     showgrid="false"
     inkscape:zoom="5.19"
     inkscape:cx="25.529865"
     inkscape:cy="42.292871"
     inkscape:window-x="0"
     inkscape:window-y="18"
     inkscape:window-maximized="0"
     inkscape:current-layer="Layer_1" /><path
     d="m 78.5,23.2075 -13.5,0 0,-6.512 c 0,-1.93 -1.57,-3.5 -3.5,-3.5 l -40,0 c -1.93,0 -3.5,1.57 -3.5,3.5 l 0,56.597 c 0,1.93 1.57,3.5 3.5,3.5 l 13.5,0 0,6.512 c 0,1.93 1.57,3.5 3.5,3.5 l 40,0 c 1.93,0 3.5,-1.57 3.5,-3.5 l 0,-56.597 c 0,-1.93 -1.57,-3.5 -3.5,-3.5 z m -57,50.585 c -0.275,0 -0.5,-0.224 -0.5,-0.5 l 0,-56.597 c 0,-0.276 0.225,-0.5 0.5,-0.5 l 40,0 c 0.275,0 0.5,0.224 0.5,0.5 l 0,6.512 0,50.085 c 0,0.276 -0.225,0.5 -0.5,0.5 z m 57.5,9.511 c 0,0.276 -0.225,0.5 -0.5,0.5 l -40,0 c -0.275,0 -0.5,-0.224 -0.5,-0.5 l 0,-6.306 23.5,0 c 1.93,0 3.5,-1.57 3.5,-3.5 l 0,-0.206 0,-0.855 7.165,0 c 0.828,0 1.5,-0.671 1.5,-1.5 0,-0.829 -0.672,-1.5 -1.5,-1.5 l -7.165,0 0,-7.333 7.165,0 c 0.828,0 1.5,-0.671 1.5,-1.5 0,-0.829 -0.672,-1.5 -1.5,-1.5 l -7.165,0 0,-7.5 7.165,0 c 0.828,0 1.5,-0.671 1.5,-1.5 0,-0.829 -0.672,-1.5 -1.5,-1.5 l -7.165,0 0,-7.204 7.391991,0 c 0.828,0 1.5,-0.671 1.5,-1.5 0,-0.829 -0.672,-1.5 -1.5,-1.5 l -7.391991,0 0,-12.192 13.5,0 c 0.275,0 0.5,0.224 0.5,0.5 z M 24.914,28.1955 c 0,-0.829 0.672,-1.5 1.5,-1.5 l 29.535312,0 c 0.828,0 1.5,0.671 1.5,1.5 0,0.829 -0.672,1.5 -1.5,1.5 l -29.535312,0 c -0.828,0 -1.5,-0.671 -1.5,-1.5 z m 32.501,10.204 c 0,0.829 -0.672,1.5 -1.5,1.5 l -29.501,0 c -0.828,0 -1.5,-0.671 -1.5,-1.5 0,-0.829 0.672,-1.5 1.5,-1.5 l 29.501,0 c 0.828,0 1.5,0.671 1.5,1.5 z m 0,10.5 c 0,0.829 -0.672,1.5 -1.5,1.5 l -29.501,0 c -0.828,0 -1.5,-0.671 -1.5,-1.5 0,-0.829 0.672,-1.5 1.5,-1.5 l 29.501,0 c 0.828,0 1.5,0.671 1.5,1.5 z m 0,10.333 c 0,0.829 -0.672,1.5 -1.5,1.5 l -29.501,0 c -0.828,0 -1.5,-0.671 -1.5,-1.5 0,-0.829 0.672,-1.5 1.5,-1.5 l 29.501,0 c 0.828,0 1.5,0.672 1.5,1.5 z"
     id="path3053"
     inkscape:connector-curvature="0"
     style="fill:#020202"
     sodipodi:nodetypes="scsssssscsssssssssssscssssssscssccsssccsssccsssccsssccsssssssssssssssssssssssssssssss" /></svg>