<?xml version="1.0" encoding="utf-8"?>
<!-- Generator: Adobe Illustrator 16.0.0, SVG Export Plug-In . SVG Version: 6.00 Build 0)  -->
<!DOCTYPE svg PUBLIC "-//W3C//DTD SVG 1.1//EN" "http://www.w3.org/Graphics/SVG/1.1/DTD/svg11.dtd">
<svg version="1.1" id="Layer_1" xmlns="http://www.w3.org/2000/svg" xmlns:xlink="http://www.w3.org/1999/xlink" x="0px" y="0px"
	 width="100px" height="100px" viewBox="0 0 100 100" enable-background="new 0 0 100 100" xml:space="preserve">
<g>
	<path d="M50.037,38.96c3.153,0,6.053-1.726,7.559-4.501c0.68-1.25,1.037-2.666,1.037-4.094c0-4.74-3.855-8.597-8.596-8.597
		c-4.741,0-8.597,3.855-8.597,8.597c0,1.585,0.443,3.143,1.281,4.501C44.301,37.43,47.037,38.96,50.037,38.96z M50.037,23.769
		c3.637,0,6.596,2.959,6.596,6.597c0,1.096-0.273,2.183-0.795,3.141c-1.156,2.132-3.379,3.455-5.801,3.455
		c-2.302,0-4.398-1.175-5.612-3.145c-0.645-1.044-0.984-2.236-0.984-3.451C43.439,26.728,46.398,23.769,50.037,23.769z"/>
	<path d="M24.736,58.175l7.416,24.449c0.106,0.354,0.398,0.617,0.759,0.688c0.363,0.072,0.731-0.06,0.968-0.342
		c2.102-2.531,5.027-4.516,8.339-5.675v1.519c0,0.553,0.447,1,1,1h13.561c0.555,0,1-0.447,1-1v-1.207
		c3.314,1.158,6.238,3.145,8.342,5.675c0.191,0.229,0.477,0.36,0.77,0.36c0.064,0,0.133-0.006,0.197-0.021
		c0.359-0.072,0.65-0.337,0.76-0.688l7.416-24.449c0.09-0.297,0.035-0.617-0.145-0.869c-1.354-1.904-2.811-3.637-4.34-5.157
		c0.729-3.434,1.096-6.935,1.096-10.415c0-16.524-8.168-31.873-21.313-40.053c-0.324-0.201-0.731-0.201-1.058,0
		c-13.149,8.182-21.316,23.528-21.316,40.054c0,3.38,0.346,6.776,1.028,10.104c-1.527,1.521-2.985,3.252-4.339,5.158
		C24.7,57.559,24.646,57.878,24.736,58.175z M31.002,53.199c0.25-0.241,0.357-0.594,0.284-0.934
		c-0.729-3.36-1.098-6.803-1.098-10.225c0-15.616,7.588-30.122,19.843-38.021c12.258,7.897,19.846,22.404,19.846,38.021
		c0,3.512-0.393,7.044-1.16,10.5c-0.037,0.163-0.021,0.373,0.023,0.533c0.051,0.169,0.143,0.322,0.27,0.443
		c1.473,1.42,2.883,3.053,4.195,4.854l-6.766,22.3c-2.514-2.5-5.789-4.388-9.393-5.392c-0.09-0.024-0.18-0.037-0.271-0.037
		c-0.215,0-0.428,0.068-0.604,0.203c-0.25,0.189-0.396,0.484-0.396,0.797v1.566H44.216v-1.877c0-0.313-0.146-0.606-0.396-0.797
		c-0.249-0.189-0.571-0.25-0.873-0.166c-3.604,1.002-6.878,2.893-9.393,5.391l-6.763-22.297
		C28.112,56.257,29.526,54.621,31.002,53.199z"/>
	<path d="M58.521,67.307c-0.227,0.504-0.002,1.098,0.502,1.321c0.135,0.062,0.271,0.088,0.41,0.088c0.381,0,0.746-0.22,0.912-0.59
		c7.484-16.642,6.42-31.085,6.371-31.691c-0.045-0.55-0.504-0.962-1.076-0.916c-0.553,0.044-0.961,0.525-0.918,1.077
		C64.734,36.737,65.799,51.128,58.521,67.307z"/>
	<path d="M42.875,83.125v7.939c0,0.554,0.447,1,1,1s1-0.446,1-1v-7.939c0-0.552-0.447-1-1-1
		C43.321,82.125,42.875,82.573,42.875,83.125z"/>
	<path d="M49,83.125v14.036c0,0.552,0.447,1,1,1s1-0.448,1-1V83.125c0-0.552-0.447-1-1-1S49,82.573,49,83.125z"/>
	<path d="M55.857,82.125c-0.553,0-1,0.448-1,1v7.939c0,0.554,0.447,1,1,1c0.555,0,1-0.446,1-1v-7.939
		C56.857,82.573,56.412,82.125,55.857,82.125z"/>
</g>
</svg>
